<?xml version="1.0" encoding="UTF-8"?>
<svg width="20px" height="20px" viewBox="0 0 20 20" version="1.1" xmlns="http://www.w3.org/2000/svg" xmlns:xlink="http://www.w3.org/1999/xlink">
    <title>utility-type/System/icon-speaker</title>
    <g id="utility-type/System/icon-speaker" stroke="none" stroke-width="1" fill="none" fill-rule="evenodd">
        <path d="M11.3184628,2.29581645 C12.4101576,1.77370156 13.3262,2.63134125 13.3262,3.80363054 L13.3262,16.1506305 C13.3262,17.3236292 12.4105175,18.1817317 11.2796693,17.6396545 L5.0192,14.241 L4.95004501,14.2142277 C4.32317984,13.9530346 3.81127444,13.4433673 3.74134339,12.8403699 L3.7332,12.6996305 L3.7332,7.25463054 C3.7332,6.54311121 4.35486286,5.94153702 5.09659806,5.6852395 L5.0132,5.717 L11.3184628,2.29581645 Z M11.6262,4.061 L5.7797307,7.23565454 L5.65180194,7.29202158 C5.55508364,7.3254414 5.46305832,7.38141322 5.40591544,7.43670956 L5.4332,7.414 L5.4332,12.54 L5.47407165,12.5733199 C5.4997154,12.5910522 5.52809444,12.607985 5.55808931,12.6232583 L5.65180194,12.6632395 L5.7797307,12.7196065 L11.6262,15.894 L11.6262,4.061 Z M1.5,6.08143054 C1.96944204,6.08143054 2.35,6.4619885 2.35,6.93143054 L2.35,13.0234305 C2.35,13.4928726 1.96944204,13.8734305 1.5,13.8734305 C1.03055796,13.8734305 0.65,13.4928726 0.65,13.0234305 L0.65,6.93143054 C0.65,6.4619885 1.03055796,6.08143054 1.5,6.08143054 Z M18.8113,9.12743054 C19.280742,9.12743054 19.6613,9.5079885 19.6613,9.97743054 C19.6613,10.4468726 19.280742,10.8274305 18.8113,10.8274305 L15.7653,10.8274305 C15.295858,10.8274305 14.9153,10.4468726 14.9153,9.97743054 C14.9153,9.5079885 15.295858,9.12743054 15.7653,9.12743054 L18.8113,9.12743054 Z M17.0722145,3.89709875 C17.3740005,3.53751417 17.9101472,3.49065912 18.2697318,3.79244506 C18.6293164,4.09423101 18.6761714,4.63037775 18.3743855,4.98996233 L16.4163855,7.32296233 C16.1145995,7.68254691 15.5784528,7.72940196 15.2188682,7.42761602 C14.8592836,7.12583007 14.8124286,6.58968333 15.1142145,6.23009875 L17.0722145,3.89709875 Z M15.2189682,12.5419451 C15.5785528,12.2401591 16.1146995,12.2870142 16.4164855,12.6465988 L18.3744855,14.9795988 C18.6762714,15.3391833 18.6294164,15.8753301 18.2698318,16.177116 C17.9102472,16.478902 17.3741005,16.4320469 17.0723145,16.0724623 L15.1143145,13.7394623 C14.8125286,13.3798777 14.8593836,12.843731 15.2189682,12.5419451 Z" id="Combined-Shape" fill="#14805E" fill-rule="nonzero"></path>
    </g>
</svg>