<svg width="120" height="120" viewBox="0 0 120 120" fill="none" xmlns="http://www.w3.org/2000/svg">
<path fill-rule="evenodd" clip-rule="evenodd" d="M59.8681 15C35.0881 15 15 35.1472 15 60C15 84.8528 35.0881 105 59.8681 105C84.648 105 104.736 84.8528 104.736 60C104.722 35.1531 84.6421 15.0143 59.8681 15ZM95.9181 84.711C95.6588 85.1011 95.3346 85.5563 95.0105 86.0115C94.6862 86.4667 94.362 86.9219 94.1027 87.3121C85.9419 91.3189 76.9935 93.4515 67.908 93.5549H67.13C62.885 94.5922 58.5315 95.1162 54.1623 95.1156H52.0875C46.8672 94.988 41.701 94.022 36.7857 92.2543C39.878 96.0069 43.4538 99.3308 47.4191 102.139C45.863 101.618 44.5662 101.098 43.2695 100.578C41.7641 99.4146 40.3745 98.1079 39.1198 96.6763C39.6624 97.5856 40.2691 98.4549 40.9353 99.2775C33.5394 95.6495 27.2646 90.0755 22.7806 83.1503C25.8142 85.4636 29.1252 87.3861 32.636 88.8728C32.247 88.3526 31.9228 87.8974 31.5986 87.4421L31.5985 87.442C31.2743 86.9869 30.9502 86.5317 30.5612 86.0116C28.1703 82.3297 26.171 78.4065 24.5961 74.3064C22.2914 71.8052 20.2086 69.1071 18.3716 66.2428C17.5359 65.1174 16.8392 63.8946 16.2968 62.6012V59.7399C16.3244 51.857 18.475 44.128 22.5212 37.3699C24.0512 43.2258 26.4093 48.8319 29.5238 54.0173C31.5669 40.0301 38.343 27.1726 48.7159 17.6012L51.5688 16.8208C40.1625 26.8717 32.7884 40.7387 30.8205 55.8382C42.0107 73.7337 61.6297 84.5559 82.6911 84.4509H83.9879C94.4425 77.3005 101.41 66.0636 103.18 53.4971C103.409 55.6567 103.495 57.829 103.439 60C103.41 68.7187 100.791 77.2309 95.9181 84.4509C92.0787 85.2603 88.1702 85.6958 84.2473 85.7514C80.4934 88.3909 76.3906 90.4921 72.0577 91.9942C80.4648 91.4446 88.6311 88.9519 95.9181 84.711ZM28.4864 63.6416C28.4855 68.2811 29.0075 72.9058 30.0425 77.4277C28.4864 76.1272 27.1896 74.8266 25.8928 73.526C21.9227 62.9989 20.5005 51.6771 21.7432 40.4913C23.4773 45.9062 25.9192 51.0667 29.0051 55.8382C28.7457 58.4393 28.4864 61.0405 28.4864 63.6416ZM29.7831 63.9017C29.7262 61.9039 29.8129 59.9045 30.0425 57.9191C41.9142 74.8686 61.0143 85.2649 81.6537 86.0116C76.9476 88.7722 71.8863 90.8726 66.6112 92.2543C63.9137 92.2291 61.2236 91.968 58.5713 91.474C48.6647 89.8494 39.3607 85.6324 31.5986 79.2486C30.4633 74.2101 29.8548 69.0667 29.7831 63.9017ZM31.5986 85.2312C29.9711 82.5436 28.499 79.7645 27.1896 76.9075C27.7454 77.465 28.3757 78.0224 28.9607 78.5398L28.9608 78.54L28.9611 78.5402L28.9611 78.5402C29.4679 78.9884 29.9407 79.4066 30.3018 79.7688C30.8396 82.0677 31.5328 84.3273 32.3766 86.5318C32.247 86.2717 32.1173 86.0766 31.9876 85.8815C31.8579 85.6864 31.7283 85.4913 31.5986 85.2312ZM32.3766 81.3295C33.226 84.3755 34.3546 87.3361 35.7482 90.1734C41.0814 92.1267 46.6765 93.2665 52.3468 93.5549C55.382 93.6548 58.4201 93.4807 61.4242 93.0347C60.4558 92.9775 59.4978 92.8028 58.5713 92.5145C49.0636 90.9753 40.0728 87.1363 32.3766 81.3295Z" fill="white"/>
<path fill-rule="evenodd" clip-rule="evenodd" d="M47.3583 38.3734C48.847 39.6821 50.7632 40.4007 52.7453 40.3935H55.4388C56.1121 40.3935 56.7855 40.3935 57.1222 41.0669C57.2124 41.2473 57.3026 41.4036 57.3864 41.5486C57.6151 41.9449 57.7956 42.2574 57.7956 42.7503C57.7973 43.3774 57.556 43.9808 57.1222 44.4338C56.9418 44.524 56.7855 44.6142 56.6405 44.6979C56.2442 44.9267 55.9317 45.1071 55.4388 45.1071H47.0216V50.4941H55.4388C57.439 50.6105 59.3953 49.8769 60.8258 48.474C62.1813 47.0139 62.9071 45.0785 62.8459 43.087C62.9623 41.0868 62.2286 39.1305 60.8258 37.7C59.3371 36.3913 57.4209 35.6727 55.4388 35.6799H52.7453C52.1182 35.6817 51.5148 35.4403 51.0619 35.0065C50.9716 34.8261 50.8814 34.6699 50.7977 34.5248C50.5689 34.1286 50.3885 33.8161 50.3885 33.3231C50.3867 32.696 50.6281 32.0926 51.0619 31.6397C51.2423 31.5495 51.3985 31.4593 51.5435 31.3755L51.5436 31.3755L51.5436 31.3755C51.9398 31.1467 52.2523 30.9663 52.7453 30.9663H61.1624V25.5793H52.7453C50.7241 25.3031 48.6995 26.0623 47.3583 27.5994C46.0496 29.0881 45.331 31.0043 45.3382 32.9864C45.2218 34.9866 45.9554 36.943 47.3583 38.3734ZM46.9998 70.4304V53.3427H51.7624V56.7775H56.2075C56.6724 56.7775 56.9671 56.6074 57.3408 56.3916L57.3408 56.3916C57.4776 56.3126 57.625 56.2276 57.7951 56.1425C58.2041 55.7154 58.4317 55.1464 58.4301 54.555C58.4301 54.0901 58.26 53.7954 58.0442 53.4217C58.0142 53.3698 57.9833 53.3163 57.9519 53.2606C59.5676 53.0072 61.0802 52.2566 62.2676 51.0922C62.3747 50.9768 62.4783 50.8587 62.5783 50.7381C63.2573 51.8784 63.5887 53.2061 63.5102 54.555C63.4715 56.1686 62.9149 57.727 61.9227 59.0001C62.9149 60.2732 63.4715 61.8316 63.5102 63.4452C63.517 65.3144 62.8394 67.1215 61.6052 68.5253C60.2562 69.8483 58.4113 70.5401 56.5251 70.4304H46.9998ZM51.7624 65.6678V61.5401V61.2226H56.2075C56.7989 61.221 57.368 61.4486 57.7951 61.8577C57.8802 62.0278 57.9652 62.1752 58.0442 62.312C58.26 62.6856 58.4301 62.9803 58.4301 63.4452C58.4317 64.0366 58.2041 64.6056 57.7951 65.0327C57.6249 65.1178 57.4776 65.2029 57.3408 65.2819C56.9671 65.4976 56.6724 65.6678 56.2075 65.6678H51.7624ZM67.6387 42.4646L77.0998 25.5698L90.6156 49.8983H84.5335L78.4514 39.0856L67.6387 42.4646ZM66.705 43.6303L64.5689 48.3297H72.2588L76.1038 40.6397L66.705 43.6303ZM68.6391 63.4646L78.1002 46.5698L91.6161 70.8983H85.5339L79.4518 60.0856L68.6391 63.4646ZM67.8218 64.5932L65.2902 69.2345H72.885L77.1043 61.6397L67.8218 64.5932Z" fill="#ED1B23"/>
<path d="M59.8682 15C84.6421 15.0144 104.722 35.1532 104.736 60C104.736 84.8528 84.6481 105 59.8682 105C35.0882 105 15 84.8528 15 60C15 35.1472 35.0882 15 59.8682 15ZM48.7158 17.6016C38.3431 27.173 31.5665 40.0304 29.5234 54.0176C26.409 48.8322 24.0515 43.2259 22.5215 37.3701C18.4752 44.1282 16.3245 51.8574 16.2969 59.7402V62.6016C16.8393 63.8949 17.5365 65.1179 18.3721 66.2432C20.209 69.1073 22.2911 71.8056 24.5957 74.3066C26.1706 78.4067 28.1706 82.3299 30.5615 86.0117C30.7559 86.2717 30.9344 86.5153 31.1045 86.751L32.0928 88.1338C32.2629 88.3695 32.4413 88.6131 32.6357 88.873C29.125 87.3864 25.8139 85.4637 22.7803 83.1504C27.2643 90.0756 33.5397 95.6494 40.9355 99.2773C40.2695 98.4549 39.6626 97.5859 39.1201 96.6768C40.3747 98.1082 41.7643 99.4148 43.2695 100.578C44.5662 101.098 45.8629 101.618 47.4189 102.139C43.4537 99.3308 39.8785 96.0064 36.7861 92.2539C41.7014 94.0215 46.8677 94.9877 52.0879 95.1152H54.1621C58.5313 95.1158 62.8849 94.592 67.1299 93.5547H67.9082C76.9936 93.4512 85.9419 91.3191 94.1025 87.3125C94.3619 86.9223 94.6865 86.4669 95.0107 86.0117C95.3349 85.5566 95.6586 85.1011 95.918 84.7109C88.631 88.9518 80.4647 91.4445 72.0576 91.9941C76.3906 90.492 80.4932 88.3905 84.2471 85.751C88.17 85.6954 92.0786 85.2606 95.918 84.4512C100.791 77.2313 103.41 68.7187 103.439 60C103.496 57.829 103.409 55.6566 103.18 53.4971C101.409 66.0635 94.4428 77.3008 83.9883 84.4512H82.6914C61.63 84.5562 42.0105 73.7334 30.8203 55.8379C32.7882 40.7387 40.1624 26.8721 51.5684 16.8213L48.7158 17.6016ZM32.377 81.3291C40.0731 87.1359 49.0636 90.9755 58.5713 92.5146C59.4977 92.803 60.4555 92.9779 61.4238 93.0352C58.4198 93.4811 55.3818 93.6545 52.3467 93.5547C46.6764 93.2663 41.0811 92.1271 35.748 90.1738C34.3545 87.3365 33.2263 84.3751 32.377 81.3291ZM30.042 57.9189C41.9136 74.8683 61.014 85.265 81.6533 86.0117C76.9473 88.7722 71.8862 90.8722 66.6113 92.2539C63.9138 92.2287 61.2236 91.9677 58.5713 91.4736C48.6648 89.8491 39.3607 85.6327 31.5986 79.249C30.4633 74.2106 29.8549 69.0664 29.7832 63.9014C29.7263 61.9036 29.8124 59.9042 30.042 57.9189ZM27.1895 76.9072C28.2268 77.9476 29.5237 78.9882 30.3018 79.7686C30.8395 82.0675 31.5331 84.3277 32.377 86.5322C32.1176 86.0121 31.858 85.7515 31.5986 85.2314C29.9712 82.5439 28.4989 79.7642 27.1895 76.9072ZM21.7432 40.4912C23.4772 45.906 25.9191 51.0665 29.0049 55.8379C28.7455 58.439 28.4863 61.0405 28.4863 63.6416C28.4855 68.2811 29.0071 72.9059 30.042 77.4277C28.486 76.1273 27.1892 74.8268 25.8926 73.5264C21.9224 62.9993 20.5005 51.677 21.7432 40.4912ZM68.6396 63.4648L79.4521 60.0859L85.5342 70.8984H91.6162L78.1006 46.5703L68.6396 63.4648ZM62.2676 51.0918C61.0801 52.2563 59.567 53.0065 57.9512 53.2598C57.9827 53.3156 58.0139 53.3698 58.0439 53.4219C58.2595 53.7953 58.4296 54.0902 58.4297 54.5547C58.4312 55.1459 58.2039 55.7156 57.7949 56.1426C57.71 56.185 57.6307 56.2278 57.5557 56.2695L57.3408 56.3916C56.9674 56.6072 56.6725 56.7772 56.208 56.7773H51.7627V53.3428H47V70.4307H56.5254C58.4114 70.5403 60.2566 69.8481 61.6055 68.5254C62.8395 67.1217 63.5164 65.3143 63.5098 63.4453C63.471 61.8319 62.9149 60.273 61.9229 59C62.9149 57.727 63.4709 56.1681 63.5098 54.5547C63.5882 53.2056 63.2545 51.8787 62.5752 50.7383C62.4757 50.8581 62.3741 50.977 62.2676 51.0918ZM67.8223 64.5938L65.29 69.2344H72.8848L77.1045 61.6396L67.8223 64.5938ZM56.208 61.2227C56.799 61.2212 57.368 61.4488 57.7949 61.8574C57.8798 62.0271 57.9651 62.175 58.0439 62.3115C58.2596 62.685 58.4296 62.9807 58.4297 63.4453C58.4312 64.0365 58.2039 64.6062 57.7949 65.0332C57.625 65.1182 57.4774 65.2033 57.3408 65.2822C56.9675 65.4978 56.6724 65.6678 56.208 65.668H51.7627V61.2227H56.208ZM52.7451 25.5791C50.7241 25.3031 48.6995 26.0626 47.3584 27.5996C46.0499 29.0882 45.3317 31.0044 45.3389 32.9863C45.2226 34.9864 45.9556 36.9437 47.3584 38.374C48.8469 39.6825 50.7633 40.4006 52.7451 40.3936H55.4395C56.1127 40.3936 56.7855 40.3942 57.1221 41.0674C57.4587 41.7405 57.7959 42.0777 57.7959 42.751C57.7974 43.3778 57.5556 43.9809 57.1221 44.4336C56.449 44.7702 56.1124 45.1073 55.4395 45.1074H47.0215V50.4941H55.4395C57.4393 50.6104 59.3959 49.8772 60.8262 48.4746C62.1817 47.0146 62.9068 45.0782 62.8457 43.0869C62.962 41.087 62.2288 39.1306 60.8262 37.7002C59.3376 36.3916 57.4214 35.6726 55.4395 35.6797H52.7451C52.1184 35.6813 51.5153 35.4402 51.0625 35.0068C50.7259 34.3336 50.3888 33.9964 50.3887 33.3232C50.3869 32.6962 50.6288 32.0925 51.0625 31.6396C51.7355 31.3031 52.0722 30.9669 52.7451 30.9668H61.1631V25.5791H52.7451ZM67.6387 42.4648L78.4512 39.0859L84.5342 49.8984H90.6162L77.0996 25.5703L67.6387 42.4648ZM66.7051 43.6309L64.5693 48.3301H72.2588L76.1045 40.6396L66.7051 43.6309Z" fill="url(#paint0_radial_0_14231)"/>
<g clip-path="url(#clip0_0_14231)">
<path d="M105.092 67.399C109.174 42.4983 92.2974 19.0031 67.3967 14.9209C42.496 10.8388 19.0008 27.7157 14.9187 52.6164C10.8365 77.5171 27.7134 101.012 52.6141 105.094C77.5148 109.177 101.01 92.2997 105.092 67.399Z" fill="white"/>
<path d="M68.6222 92.3483C65.2909 93.0266 61.8541 93.3884 58.3268 93.3884C49.9006 93.3884 41.9416 91.3384 34.9173 87.7056C31.39 81.3595 29.0234 74.2899 28.1039 66.7681C37.9471 79.626 52.2069 88.9266 68.6222 92.3332V92.3483ZM56.3974 58.7489H51.6642V63.0901H56.4124C57.0154 63.0901 57.5279 62.8791 57.95 62.457C58.372 62.035 58.5831 61.5225 58.5831 60.9195C58.5831 60.3166 58.372 59.804 57.95 59.382C57.5279 58.9599 57.0154 58.7489 56.4124 58.7489H56.3974ZM107 60.0301C107 63.0449 106.699 65.9994 106.156 68.8483V68.8784C105.734 71.1094 105.146 73.28 104.422 75.3903C104.407 75.4506 104.392 75.5109 104.362 75.5561C104 76.6113 103.593 77.6363 103.156 78.6462C102.734 79.611 102.282 80.5606 101.8 81.4952C101.739 81.6007 101.694 81.7062 101.634 81.8117C101.136 82.7614 100.609 83.6809 100.051 84.6004C100.051 84.6155 100.036 84.6305 100.021 84.6456C99.4933 85.5048 98.9205 86.3489 98.3477 87.1629C98.2572 87.2986 98.1668 87.4192 98.0763 87.5548C96.7046 89.4541 95.1822 91.2479 93.5542 92.906C90.8861 95.6193 87.9166 98.001 84.6607 100.006C84.0276 100.398 83.3794 100.775 82.7162 101.136C82.7011 101.136 82.686 101.151 82.6709 101.166C82.0378 101.513 81.3897 101.845 80.7415 102.176C80.7114 102.191 80.6661 102.222 80.6209 102.237C79.9878 102.538 79.3396 102.84 78.6915 103.126C78.6312 103.156 78.5709 103.186 78.5106 103.216C77.8926 103.488 77.2595 103.729 76.6264 103.97C76.5359 104 76.4455 104.046 76.34 104.076C75.737 104.302 75.1341 104.498 74.516 104.709C74.3954 104.754 74.2598 104.799 74.1392 104.844C73.5513 105.025 72.9484 105.206 72.3454 105.357C72.1947 105.402 72.0439 105.447 71.8781 105.493C71.3053 105.643 70.7325 105.764 70.1446 105.9C69.9638 105.945 69.7678 105.99 69.5718 106.035C69.0141 106.156 68.4564 106.246 67.8987 106.337C67.6725 106.367 67.4615 106.412 67.2354 106.457C66.6777 106.548 66.135 106.608 65.5622 106.668C65.321 106.699 65.0949 106.729 64.8538 106.759C64.296 106.819 63.7232 106.849 63.1504 106.894C62.9092 106.91 62.6831 106.94 62.4419 106.94C61.643 106.985 60.8291 107 60.0151 107C59.2614 107 58.5228 106.985 57.7842 106.94C57.543 106.94 57.3169 106.91 57.0757 106.894C56.5783 106.864 56.0657 106.819 55.5683 106.774C55.3121 106.744 55.0407 106.729 54.7694 106.683C54.3021 106.638 53.8198 106.563 53.3525 106.503C53.0962 106.472 52.84 106.427 52.5837 106.382C52.0561 106.292 51.5285 106.201 51.001 106.096C50.8201 106.065 50.6241 106.02 50.4432 105.99C49.7649 105.854 49.0866 105.689 48.4083 105.523C48.1671 105.462 47.9259 105.387 47.6847 105.327C47.2476 105.206 46.7954 105.086 46.3733 104.95C46.0718 104.86 45.7854 104.769 45.484 104.664C45.1071 104.543 44.7453 104.422 44.3685 104.287C44.052 104.181 43.7505 104.061 43.4339 103.955C43.0872 103.819 42.7556 103.684 42.4089 103.548C42.0924 103.412 41.7758 103.292 41.4593 103.156C41.1276 103.021 40.8111 102.87 40.4945 102.719C39.8614 102.433 39.2284 102.131 38.6254 101.815C38.3993 101.694 38.1732 101.589 37.9471 101.468C37.5702 101.257 37.1783 101.046 36.8165 100.835C36.6206 100.714 36.4096 100.609 36.2136 100.488C35.8217 100.247 35.4298 100.021 35.0529 99.7797C34.9022 99.6742 34.7364 99.5686 34.5856 99.4782C34.1636 99.2069 33.7566 98.9355 33.3345 98.6491C33.3194 98.6491 33.3044 98.6341 33.2893 98.619C22.0141 90.8409 14.3416 78.2694 13.1658 63.8287C13.1507 63.6177 13.1357 63.4217 13.1206 63.2258C13.0904 62.8339 13.0603 62.442 13.0452 62.05C13.0151 61.3717 13 60.6934 13 60C13 59.2162 13.0151 58.4474 13.0603 57.6786C13.0754 57.2716 13.1206 56.8647 13.1507 56.4577C13.1809 56.111 13.196 55.7643 13.2261 55.4176C13.2713 54.8448 13.3467 54.272 13.4221 53.7142C13.4371 53.5484 13.4522 53.3826 13.4824 53.2168C13.5879 52.5385 13.7085 51.8602 13.8291 51.1969C13.8291 51.1668 13.8441 51.1216 13.8441 51.0763C17.0548 34.4349 29.0083 20.9439 44.7303 15.5475C49.5087 13.9044 54.6488 13 59.9849 13C85.942 13 106.985 34.043 107 60.0301ZM79.1738 41.821L68.3056 61.5224L81.857 56.6084L88.3688 68.6523L94.1722 68.6976L79.1738 41.821ZM68.577 38.746L79.0231 35.3996L84.6908 45.8457H90.5244L77.6363 22.3156L68.577 38.7309V38.746ZM64.7633 45.8608H70.5969L73.7171 40.0876L66.6325 42.3486L64.7633 45.8457V45.8608ZM64.492 68.6222H70.3255L73.4458 62.8489L66.3611 65.11L64.492 68.6071V68.6222ZM62.5475 47.4134C61.5074 48.3631 59.9849 49.4484 58.0103 50.0061C58.2967 50.3829 58.6584 51.212 58.6584 51.6944C58.6584 52.2973 58.4474 52.8098 58.0253 53.2319C57.6033 53.6539 57.0908 53.865 56.4878 53.865H51.7094V49.991H46.6145H46.509L46.5542 68.6222H56.5029C58.5378 68.592 60.2713 67.8685 61.7033 66.4365C63.1353 64.9894 63.8438 63.2559 63.8438 61.221C63.8438 59.397 63.2559 57.7992 62.0953 56.4727C63.271 55.1161 63.8589 53.5183 63.8589 51.6793C63.8589 50.2473 63.271 48.559 62.5324 47.4134H62.5475ZM46.9763 24.3204C45.5141 25.7826 44.7755 27.5613 44.7755 29.6414C44.7755 31.7216 45.5141 33.4852 46.9763 34.9625C48.4384 36.4246 50.2171 37.1632 52.2973 37.1632H54.9503C55.5683 37.1632 56.0808 37.3894 56.518 37.8114C56.9551 38.2335 57.1661 38.7611 57.1661 39.3791C57.1661 39.9971 56.94 40.5096 56.518 40.9468C56.0808 41.3839 55.5683 41.5949 54.9503 41.5949H46.5391V46.9009H54.9503C57.0305 46.9009 58.7941 46.1623 60.2713 44.7001C61.7335 43.238 62.4721 41.4593 62.4721 39.3791C62.4721 37.2989 61.7335 35.5353 60.2713 34.0581C58.8092 32.5959 57.0305 31.8573 54.9503 31.8573H52.2973C51.6793 31.8573 51.1517 31.6462 50.7296 31.2091C50.2925 30.772 50.0815 30.2595 50.0815 29.6414C50.0815 29.0234 50.2925 28.4958 50.7296 28.0738C51.1668 27.6366 51.6793 27.4256 52.2973 27.4256H60.7085V22.1196H52.2973C50.2171 22.1196 48.4535 22.8582 46.9763 24.3204ZM104.392 64.6578C98.3024 77.0032 87.4041 86.575 74.1543 90.8711C54.8749 88.399 38.143 77.6212 27.7271 62.246C27.6969 61.4169 27.6668 60.5728 27.6668 59.7287C27.6668 43.1325 34.7213 28.1642 45.9814 17.6276C44.1123 18.2457 42.3034 18.9692 40.5548 19.8284C31.3749 30.1539 25.677 43.645 25.3605 58.4474C22.5417 53.6087 20.3258 48.3631 18.7883 42.8461C18.2909 44.052 17.8387 45.2729 17.4468 46.5241C19.3762 52.4028 22.0744 57.9349 25.4208 62.9997C25.8428 71.0491 27.8778 78.6915 31.179 85.5953C25.7524 82.2037 21.0192 77.8172 17.2056 72.7072C17.8839 74.9833 18.713 77.1841 19.738 79.2793C23.6722 83.3493 28.2094 86.8162 33.2441 89.4994C35.5353 93.509 38.2938 97.2171 41.414 100.594C43.1777 101.408 45.0167 102.116 46.9009 102.704C43.1928 99.3727 39.8916 95.5741 37.1482 91.3836C43.66 94.1873 50.8201 95.755 58.3419 95.755C63.9343 95.755 69.3307 94.8807 74.4105 93.2979C77.1087 93.6296 79.8522 93.8105 82.6408 93.8105C84.9772 93.8105 87.2835 93.6748 89.5597 93.4487C90.5395 92.5895 91.474 91.6851 92.3634 90.7354C89.1828 91.2027 85.942 91.474 82.6408 91.474C81.6007 91.474 80.5757 91.4439 79.5507 91.3987C89.1677 87.2383 97.3528 80.3496 103.096 71.7123C103.714 69.4362 104.166 67.0997 104.407 64.703L104.392 64.6578Z" fill="url(#paint1_linear_0_14231)"/>
<path d="M73.1747 71.9385C72.0743 71.9385 71.1548 72.24 70.4464 72.858C69.753 73.4609 69.3912 74.2598 69.3912 75.1341C69.3912 75.9632 69.7228 76.6566 70.371 77.2143C70.8232 77.5911 71.6221 78.0584 72.8582 78.0584C72.9335 78.0584 73.0089 78.0584 73.0692 78.0584L70.5217 80.832L70.3258 81.0581H72.4813L72.5115 81.0129L75.074 78.2092L75.27 77.9831C75.6468 77.5911 75.9935 77.1992 76.3251 76.6415C76.6869 76.0385 76.8376 75.526 76.8376 74.9231C76.8376 74.1091 76.5211 73.3856 75.9031 72.858C75.4358 72.451 74.5917 71.9686 73.1747 71.9686V71.9385ZM74.4711 76.1742C74.1244 76.4908 73.6119 76.6566 73.0843 76.6566C72.5868 76.6566 72.0743 76.4757 71.7276 76.2044C71.3809 75.918 71.185 75.4657 71.185 75.0135C71.185 74.5613 71.3809 74.1392 71.7427 73.8378C72.0894 73.5514 72.617 73.3705 73.1144 73.3705C73.6119 73.3705 74.1394 73.5514 74.4861 73.8378C74.8328 74.1242 75.0288 74.5312 75.0288 74.9683C75.0288 75.4054 74.8178 75.8577 74.4711 76.1591V76.1742ZM55.7344 72.0892H58.3723V81.0581H56.5333V73.8679H55.7344V72.0892ZM64.0702 71.9385C62.9698 71.9385 62.0503 72.24 61.3418 72.858C60.6484 73.4609 60.2867 74.2598 60.2867 75.1341C60.2867 75.9632 60.6183 76.6566 61.2664 77.2143C61.7187 77.5911 62.5176 78.0584 63.7536 78.0584C63.829 78.0584 63.9044 78.0584 63.9647 78.0584L61.4172 80.832L61.2212 81.0581H63.3768L63.4069 81.0129L65.9695 78.2092L66.1654 77.9831C66.5423 77.5911 66.889 77.1992 67.2206 76.6415C67.5824 76.0385 67.7331 75.526 67.7331 74.9231C67.7331 74.1091 67.4165 73.3856 66.7985 72.858C66.3312 72.451 65.4871 71.9686 64.0702 71.9686V71.9385ZM65.3665 76.1742C65.0198 76.4908 64.5073 76.6566 63.9797 76.6566C63.4823 76.6566 62.9698 76.4757 62.6231 76.2044C62.2764 75.918 62.0804 75.4657 62.0804 75.0135C62.0804 74.5613 62.2764 74.1392 62.6382 73.8378C62.9849 73.5514 63.5124 73.3705 64.0099 73.3705C64.5073 73.3705 65.0349 73.5514 65.3816 73.8378C65.7283 74.1242 65.9242 74.5312 65.9242 74.9683C65.9242 75.4054 65.7132 75.8577 65.3665 76.1591V76.1742ZM84.4951 77.0033C84.2992 76.7621 83.9977 76.536 83.6661 76.3852C83.9826 76.2194 84.2087 75.9933 84.3444 75.8275C84.6911 75.3602 84.7363 74.8326 84.7363 74.5613C84.7363 73.8076 84.4198 73.1293 83.8319 72.6469C83.44 72.3304 82.7466 71.9536 81.6462 71.9536C80.5458 71.9536 79.8524 72.3304 79.4605 72.6469C78.8726 73.1293 78.5561 73.8076 78.5561 74.5613C78.5561 74.8326 78.6164 75.3602 78.948 75.8275C79.0836 76.0084 79.3097 76.2194 79.6263 76.4003C79.2796 76.5661 78.9932 76.7772 78.7822 77.0183C78.4505 77.3952 78.2847 77.8474 78.2847 78.4051C78.2847 79.3849 78.752 80.0029 79.1439 80.3496C79.566 80.7265 80.3498 81.1938 81.6462 81.1938C82.9425 81.1938 83.7113 80.7416 84.1484 80.3496C84.5403 80.0029 85.0076 79.3849 85.0076 78.4051C85.0076 77.8474 84.8418 77.3801 84.5102 77.0033H84.4951ZM80.6061 73.7021C80.8623 73.4911 81.2241 73.3856 81.6462 73.3856C82.0682 73.3856 82.43 73.4911 82.6863 73.7021C82.9274 73.8981 83.0631 74.2297 83.0631 74.5613C83.0631 74.9985 82.837 75.2547 82.7013 75.3753C82.4602 75.5863 82.0381 75.7371 81.6462 75.7371C81.2543 75.7371 80.8473 75.5863 80.6061 75.3753C80.4704 75.2547 80.2443 74.9985 80.2443 74.5613C80.2443 74.2297 80.3951 73.8981 80.6212 73.7021H80.6061ZM82.7616 79.3397C82.5657 79.5206 82.219 79.7467 81.6311 79.7467C81.0432 79.7467 80.6815 79.5206 80.5006 79.3397C80.2443 79.0985 80.0785 78.7367 80.0785 78.4202C80.0785 78.0584 80.2443 77.6816 80.5006 77.4706C80.7719 77.2294 81.194 77.0937 81.6311 77.0937C82.0682 77.0937 82.4903 77.2294 82.7616 77.4706C83.0179 77.6816 83.1988 78.0735 83.1988 78.4202C83.1988 78.7518 83.033 79.0985 82.7767 79.3397H82.7616Z" fill="white"/>
</g>
<defs>
<radialGradient id="paint0_radial_0_14231" cx="0" cy="0" r="1" gradientTransform="matrix(-51.6592 71.3614 -69.0237 -50.2612 87.1 26.5167)" gradientUnits="userSpaceOnUse">
<stop stop-color="#F4EAB6"/>
<stop offset="0.657522" stop-color="#C4952F"/>
<stop offset="0.8464" stop-color="#D4B86D"/>
<stop offset="1" stop-color="#DCC689"/>
</radialGradient>
<linearGradient id="paint1_linear_0_14231" x1="89.7405" y1="30.2595" x2="18.6527" y2="101.362" gradientUnits="userSpaceOnUse">
<stop stop-color="#FF1B00"/>
<stop offset="0.6" stop-color="#A20F00"/>
<stop offset="1" stop-color="#420600"/>
</linearGradient>
<clipPath id="clip0_0_14231">
<rect width="94" height="94" fill="white" transform="translate(13 13)"/>
</clipPath>
</defs>
</svg>
